0
SECTION
2
HEADER
9
$INSUNITS
70
4
9
$ACADVER
1
AC1014
9
$HANDSEED
5
FFFF
0
ENDSEC
0
SECTION
2
TABLES
0
TABLE
2
VPORT
5
8
100
AcDbSymbolTable
0
ENDTAB
0
TABLE
2
LTYPE
5
5
100
AcDbSymbolTable
0
LTYPE
5
14
100
AcDbSymbolTableRecord
100
AcDbLinetypeTableRecord
2
BYBLOCK
70
0
0
LTYPE
5
15
100
AcDbSymbolTableRecord
100
AcDbLinetypeTableRecord
2
BYLAYER
70
0
0
ENDTAB
0
TABLE
2
LAYER
5
2
100
AcDbSymbolTable
70
2
0
LAYER
5
50
100
AcDbSymbolTableRecord
100
AcDbLayerTableRecord
2
0
70
0
6
CONTINUOUS
0
ENDTAB
0
TABLE
2
STYLE
5
3
100
AcDbSymbolTable
70
1
0
STYLE
5
11
100
AcDbSymbolTableRecord
100
AcDbTextStyleTableRecord
2
STANDARD
70
0
0
ENDTAB
0
TABLE
2
VIEW
5
6
100
AcDbSymbolTable
70
0
0
ENDTAB
0
TABLE
2
UCS
5
7
100
AcDbSymbolTable
70
0
0
ENDTAB
0
TABLE
2
APPID
5
9
100
AcDbSymbolTable
70
2
0
APPID
5
12
100
AcDbSymbolTableRecord
100
AcDbRegAppTableRecord
2
ACAD
70
0
0
ENDTAB
0
TABLE
2
DIMSTYLE
5
A
100
AcDbSymbolTable
70
1
0
ENDTAB
0
TABLE
2
BLOCK_RECORD
5
1
100
AcDbSymbolTable
70
1
0
BLOCK_RECORD
5
1F
100
AcDbSymbolTableRecord
100
AcDbBlockTableRecord
2
*MODEL_SPACE
0
BLOCK_RECORD
5
1B
100
AcDbSymbolTableRecord
100
AcDbBlockTableRecord
2
*PAPER_SPACE
0
ENDTAB
0
ENDSEC
0
SECTION
2
BLOCKS
0
BLOCK
5
20
100
AcDbEntity
100
AcDbBlockBegin
2
*MODEL_SPACE
0
ENDBLK
5
21
100
AcDbEntity
100
AcDbBlockEnd
0
BLOCK
5
1C
100
AcDbEntity
100
AcDbBlockBegin
2
*PAPER_SPACE
0
ENDBLK
5
1D
100
AcDbEntity
100
AcDbBlockEnd
0
ENDSEC
0
SECTION
2
ENTITIES
0
LINE
5
100
100
AcDbEntity
8
0
100
AcDbLine
10
9.9999999999999982
20
7.0000000000000018
30
0
11
9.9999999999999982
21
-15.000000000000002
31
0
0
LINE
5
101
100
AcDbEntity
8
0
100
AcDbLine
10
-9.9999999999999982
20
-15.000000000000002
30
0
11
-9.9999999999999982
21
7.0000000000000018
31
0
0
LINE
5
102
100
AcDbEntity
8
0
100
AcDbLine
10
-9.9999999999999982
20
15.000000000000002
30
0
11
9.9999999999999982
21
-15.000000000000002
31
0
0
LINE
5
103
100
AcDbEntity
8
0
100
AcDbLine
10
9.9999999999999982
20
15.000000000000002
30
0
11
-9.9999999999999982
21
-15.000000000000002
31
0
0
LINE
5
104
100
AcDbEntity
8
0
100
AcDbLine
10
-7.5
20
15
30
0
11
-7.5
21
30
31
0
0
LINE
5
105
100
AcDbEntity
8
0
100
AcDbLine
10
-7.5
20
30
30
0
11
7.4999999999999982
21
30
31
0
0
LINE
5
106
100
AcDbEntity
8
0
100
AcDbLine
10
7.4999999999999982
20
30
30
0
11
7.4999999999999982
21
15.000000000000002
31
0
0
LINE
5
107
100
AcDbEntity
8
0
100
AcDbLine
10
9.9999999999999982
20
15.000000000000002
30
0
11
20
21
15.000000000000002
31
0
0
LINE
5
108
100
AcDbEntity
8
0
100
AcDbLine
10
20
20
15.000000000000002
30
0
11
20
21
-20
31
0
0
LINE
5
109
100
AcDbEntity
8
0
100
AcDbLine
10
20
20
-20
30
0
11
12.5
21
-20
31
0
0
LINE
5
110
100
AcDbEntity
8
0
100
AcDbLine
10
12.5
20
-20
30
0
11
12.500000000000002
21
7.0000000000000018
31
0
0
LINE
5
111
100
AcDbEntity
8
0
100
AcDbLine
10
12.500000000000002
20
7.0000000000000018
30
0
11
9.9999999999999982
21
7.0000000000000018
31
0
0
LINE
5
112
100
AcDbEntity
8
0
100
AcDbLine
10
-9.9999999999999982
20
15.000000000000002
30
0
11
-20
21
15.000000000000002
31
0
0
LINE
5
113
100
AcDbEntity
8
0
100
AcDbLine
10
-20
20
15.000000000000002
30
0
11
-20
21
-20
31
0
0
LINE
5
114
100
AcDbEntity
8
0
100
AcDbLine
10
-20
20
-20
30
0
11
-12.5
21
-20
31
0
0
LINE
5
115
100
AcDbEntity
8
0
100
AcDbLine
10
-12.5
20
-20
30
0
11
-12.499999999999998
21
7.0000000000000018
31
0
0
LINE
5
116
100
AcDbEntity
8
0
100
AcDbLine
10
-12.499999999999998
20
7.0000000000000018
30
0
11
-9.9999999999999982
21
7.0000000000000018
31
0
0
LINE
5
117
100
AcDbEntity
8
0
100
AcDbLine
10
-9.9999999999999982
20
-15.000000000000002
30
0
11
-9.9999999999999982
21
-40.000000298023231
31
0
0
LINE
5
118
100
AcDbEntity
8
0
100
AcDbLine
10
-9.9999999999999982
20
-40.000000298023231
30
0
11
-11.999999999999996
21
-40.000000298023231
31
0
0
LINE
5
119
100
AcDbEntity
8
0
100
AcDbLine
10
-11.999999999999996
20
-40.000000298023231
30
0
11
-12
21
-45.000000298023224
31
0
0
LINE
5
120
100
AcDbEntity
8
0
100
AcDbLine
10
-12
20
-45.000000298023224
30
0
11
-0.49999999999999656
21
-45.000000298023224
31
0
0
LINE
5
121
100
AcDbEntity
8
0
100
AcDbLine
10
-0.49999999999999656
20
-45.000000298023224
30
0
11
-0.49999999999999667
21
-40.000000298023224
31
0
0
LINE
5
122
100
AcDbEntity
8
0
100
AcDbLine
10
-0.49999999999999667
20
-40.000000298023224
30
0
11
-2.4999999999999969
21
-40.000000298023238
31
0
0
LINE
5
123
100
AcDbEntity
8
0
100
AcDbLine
10
-2.4999999999999969
20
-40.000000298023238
30
0
11
-2.4999999999999991
21
-20.000000298023224
31
0
0
LINE
5
124
100
AcDbEntity
8
0
100
AcDbLine
10
-2.4999999999999991
20
-20.000000298023224
30
0
11
2.5000000000000053
21
-20.000000298023224
31
0
0
LINE
5
125
100
AcDbEntity
8
0
100
AcDbLine
10
2.5000000000000053
20
-20.000000298023224
30
0
11
2.4999999999999978
21
-40.000000298023224
31
0
0
LINE
5
126
100
AcDbEntity
8
0
100
AcDbLine
10
2.4999999999999978
20
-40.000000298023224
30
0
11
0.49999999999999745
21
-40.000000298023224
31
0
0
LINE
5
127
100
AcDbEntity
8
0
100
AcDbLine
10
0.49999999999999745
20
-40.000000298023224
30
0
11
0.49999999999999351
21
-45.000000298023224
31
0
0
LINE
5
128
100
AcDbEntity
8
0
100
AcDbLine
10
0.49999999999999351
20
-45.000000298023224
30
0
11
11.999999999999996
21
-45.000000298023224
31
0
0
LINE
5
129
100
AcDbEntity
8
0
100
AcDbLine
10
11.999999999999996
20
-45.000000298023224
30
0
11
12
21
-40.000000298023217
31
0
0
LINE
5
130
100
AcDbEntity
8
0
100
AcDbLine
10
12
20
-40.000000298023217
30
0
11
9.9999999999999982
21
-40.000000298023224
31
0
0
LINE
5
131
100
AcDbEntity
8
0
100
AcDbLine
10
9.9999999999999982
20
-40.000000298023224
30
0
11
9.9999999999999982
21
-15.000000000000002
31
0
0
LINE
5
132
100
AcDbEntity
8
0
100
AcDbLine
10
-9.9999999999999982
20
15.000000000000002
30
0
11
-7.5
21
15
31
0
0
LINE
5
133
100
AcDbEntity
8
0
100
AcDbLine
10
7.4999999999999982
20
15.000000000000002
30
0
11
9.9999999999999982
21
15.000000000000002
31
0
0
LWPOLYLINE
5
134
100
AcDbEntity
8
0
100
AcDbPolyline
90
4
70
1
43
0.0
10
6.9999999999999982
20
-15.000000223517418
10
8.4999999999999982
20
-15.000000223517418
10
8.4999999999999982
20
13.999999776482586
10
6.9999999999999982
20
13.999999776482586
0
LWPOLYLINE
5
135
100
AcDbEntity
8
0
100
AcDbPolyline
90
4
70
1
43
0.0
10
3.9999999552965146
20
-15.000000223517418
10
5.4999999552965146
20
-15.000000223517418
10
5.4999999552965146
20
14.000000208616257
10
3.9999999552965146
20
14.000000208616257
0
CIRCLE
5
136
100
AcDbEntity
8
0
100
AcDbCircle
10
-5.5
20
28
30
0
40
1
210
0
220
0
230
1
0
LWPOLYLINE
5
137
100
AcDbEntity
8
0
100
AcDbPolyline
90
4
70
1
43
0.0
10
3.951562499999965
20
22.000000000000014
10
-3.8999999999999986
20
22.000000000000014
10
-3.8999999999999995
20
25
10
3.9515624999999637
20
25
0
ENDSEC
0
SECTION
2
OBJECTS
0
DICTIONARY
5
C
100
AcDbDictionary
3
ACAD_GROUP
350
D
3
ACAD_MLINESTYLE
350
17
0
DICTIONARY
5
D
100
AcDbDictionary
0
DICTIONARY
5
1A
330
C
100
AcDbDictionary
0
DICTIONARY
5
17
100
AcDbDictionary
0
ENDSEC
0
EOF
